# xmcd
#
# Track frame offsets:
#	150
#	16961
#	35901
#	52134
#	87909
#	107128
#	124251
#	140830
#	158157
#	177851
#	193220
#	206812
#	223421
#	237864
#	253674
#
# Disc length: 3579 seconds
#
# Revision: 1
# Processed by: cddbd v1.5.2PL0 Copyright (c) Steve Scherf et al.
# Submitted via: audiograbber 1.83.01
#
DISCID=ed0df90f
DTITLE=Compilation - Te Iubesc. Cele mai frumoase duete.
DYEAR=2008
DGENRE=Love Song
TTITLE0=Corina feat. Toni Cottura - Quieres una aventura
TTITLE1=Mandinga feat. Alex - Cand sunt cu tine
TTITLE2=Sistem feat. Alexandra Ungureanu - Departe de tine
TTITLE3=Iris feat. Felicia Filip - Baby
TTITLE4=Crush and Alexandra Ungureanu - Aprinde dragostea
TTITLE5=Cream feat. Marius Moga and Matteo - Stiu ca-ti place (Vanilla Cream)
TTITLE6=Cristi Nistor si Simona Nae - Coji de portocale
TTITLE7=Anda Adam feat Bishop - Nai, nai
TTITLE8=Alex feat. Connect-R - Dragoste la prima vedere
TTITLE9=Moni-k feat. Puya - Shot dupa shot
TTITLE10=Mihai Trastariu feat. Nico - All the Time
TTITLE11=Simona Nae feat. Connect - Te iubesc
TTITLE12=DJ Andi feat Aida - Time 1st Time
TTITLE13=Raoul Russu feat. Georgiana - Am atins un nor
TTITLE14=Papa and Moni-k - Cine
EXTD=
EXTT0=
EXTT1=
EXTT2=
EXTT3=
EXTT4=
EXTT5=
EXTT6=
EXTT7=
EXTT8=
EXTT9=
EXTT10=
EXTT11=
EXTT12=
EXTT13=
EXTT14=
PLAYORDER=
